<svg width="403" height="75" viewBox="0 0 403 75" fill="none" xmlns="http://www.w3.org/2000/svg">
<path d="M78.9418 73.8849C80.0637 73.8849 80.9816 72.9515 80.9816 71.8108V2.32991C80.9816 1.18919 80.0637 0.255859 78.9418 0.255859H56.8095C55.5856 0.255859 54.5657 0.981781 54.2597 2.22621L41.0008 63.0998L27.6398 2.22621C27.3338 0.981781 26.3139 0.255859 25.09 0.255859H2.03984C0.917928 0.255859 0 1.18919 0 2.32991V71.8108C0 72.9515 0.917928 73.8849 2.03984 73.8849H11.9331C13.055 73.8849 13.9729 72.9515 13.9729 71.8108V8.9669L28.7617 71.9145C29.0677 73.159 30.1896 73.8849 31.4135 73.8849H49.1601C50.384 73.8849 51.4039 73.159 51.7099 71.9145L66.3968 9.17431V71.8108C66.3968 72.9515 67.3147 73.8849 68.4366 73.8849H78.9418Z" fill="white"/>
<path d="M114.051 44.4956C114.759 44.4956 115.337 43.9031 115.337 43.1789V31.0657C115.337 30.3415 114.759 29.749 114.051 29.749H101.899C101.192 29.749 100.613 30.3415 100.613 31.0657V43.1789C100.613 43.9031 101.192 44.4956 101.899 44.4956H114.051Z" fill="white"/>
<path d="M375.922 74.464H359.594C348.674 74.464 339.626 66.04 339.626 54.496V24.544C339.626 17.888 343.058 11.648 348.466 8.00801L354.498 3.848C358.034 1.456 362.194 0.208008 366.458 0.208008H382.682C393.706 0.208008 402.65 8.632 402.65 20.176V50.128C402.65 56.784 399.322 63.024 393.81 66.664L387.882 70.72C384.346 73.216 380.186 74.464 375.922 74.464ZM362.194 62.088H380.082C383.098 62.088 385.49 59.696 385.49 56.68V18.304C385.49 15.392 383.098 12.896 380.082 12.896H362.194C359.178 12.896 356.786 15.392 356.786 18.304V56.68C356.786 59.696 359.178 62.088 362.194 62.088Z" fill="white"/>
<path d="M317.235 43.68L334.187 72.072C334.811 73.112 334.187 74.256 332.835 74.256H318.275C316.923 74.256 315.675 73.528 315.051 72.384L301.531 49.4C300.803 48.048 299.763 47.424 297.995 47.424H285.411V72.176C285.411 73.32 284.475 74.256 283.331 74.256H270.643C269.499 74.256 268.563 73.32 268.563 72.176V2.496C268.563 1.352 269.499 0.416 270.643 0.416H283.019C284.163 0.416 285.099 1.352 285.099 2.496V4.472C298.931 1.248 306.211 0 312.035 0C323.059 0 331.275 7.696 331.275 19.136V23.504C331.275 30.264 327.531 36.608 322.435 40.04L317.235 43.68ZM285.411 15.184V35.464H307.979C311.307 35.464 314.115 32.76 314.115 29.328V18.2C314.115 15.184 311.723 12.896 308.811 12.896H287.699C286.451 12.896 285.411 13.936 285.411 15.184Z" fill="white"/>
<path d="M254.811 74.256H206.659C205.515 74.256 204.579 73.32 204.579 72.176V2.49601C204.579 1.35202 205.515 0.416016 206.659 0.416016H254.603C255.955 0.416016 256.891 1.35202 256.891 2.70402V10.608C256.891 11.96 255.955 12.896 254.603 12.896H220.907V30.264H252.731C253.875 30.264 254.811 31.2 254.811 32.344V40.56C254.811 41.704 253.875 42.64 252.731 42.64H220.907V61.88H254.811C255.955 61.88 256.891 62.816 256.891 63.96V72.176C256.891 73.32 255.955 74.256 254.811 74.256Z" fill="white"/>
<path d="M192.716 74.256H136.972C135.828 74.256 134.892 73.32 134.892 72.176V64.792C134.892 63.752 135.204 62.712 135.828 61.88L175.14 13H138.74C137.596 13 136.66 12.064 136.66 10.92V2.49601C136.66 1.35202 137.596 0.416016 138.74 0.416016H192.82C193.964 0.416016 194.9 1.35202 194.9 2.49601V9.98402C194.9 11.024 194.588 12.064 193.964 12.896L154.756 61.568H192.716C193.86 61.568 194.796 62.504 194.796 63.648V72.176C194.796 73.32 193.86 74.256 192.716 74.256Z" fill="white"/>
<rect x="352.5" y="57.9395" width="60" height="10" transform="rotate(-60 352.5 57.9395)" fill="white"/>
</svg>
