<svg width="1052" height="269" viewBox="0 0 1052 269" fill="none" xmlns="http://www.w3.org/2000/svg">
<path d="M282.7 265C286.72 265 290 261.65 290 257.56V7.44C290 3.35 286.71 0 282.7 0H203.44C199.06 0 195.4 2.6 194.31 7.06L146.83 226.33L98.98 7.06C97.88 2.6 94.23 0 89.85 0H7.3C3.29 0 0 3.35 0 7.44V257.57C0 261.66 3.29 265.01 7.3 265.01H42.73C46.75 265.01 50.03 261.66 50.03 257.57V31.23L102.99 257.93C104.09 262.39 108.1 265 112.49 265H176.04C180.42 265 184.08 262.4 185.17 257.93L238.77 31.98V257.57C238.77 261.66 242.06 265.01 246.08 265.01H282.7V265Z" fill="white"/>
<path d="M360 225H330C327.239 225 325 227.239 325 230V260C325 262.761 327.239 265 330 265H360C362.761 265 365 262.761 365 260V230C365 227.239 362.761 225 360 225Z" fill="white"/>
<path d="M961.328 268.84C909.168 268.84 871.088 232.68 871.088 182.12C871.088 131.56 908.848 95.4004 961.328 95.4004C1013.81 95.4004 1051.57 131.24 1051.57 182.12C1051.57 232.68 1013.81 268.84 961.328 268.84ZM961.328 224.04C985.008 224.04 1000.37 208.04 1000.37 182.12C1000.37 156.2 985.008 140.2 961.328 140.2C937.648 140.2 922.288 156.2 922.288 182.12C922.288 208.04 937.648 224.04 961.328 224.04Z" fill="white"/>
<path d="M807.633 260C807.633 262.761 805.394 265 802.633 265H762.713C759.951 265 757.713 262.761 757.713 260V104.24C757.713 101.479 759.951 99.24 762.713 99.24H799.753C802.514 99.24 804.753 101.479 804.753 104.24V123.235C804.753 123.768 805.185 124.2 805.718 124.2C806.103 124.2 806.452 123.969 806.608 123.617C813.723 107.621 827.447 97 851.793 97H865.993C868.754 97 870.993 99.2386 870.993 102V138.4C870.993 141.161 868.754 143.4 865.993 143.4H845.073C822.033 143.4 807.633 157.8 807.633 182.76V260Z" fill="white"/>
<path d="M735.29 185.64V191.84C735.29 194.602 733.052 196.84 730.29 196.84H613.568C610.355 196.84 607.959 199.845 609.064 202.862C614.822 218.584 627.743 227.24 646.01 227.24C661.768 227.24 672.001 222.268 679.019 212.836C680.032 211.475 681.594 210.6 683.29 210.6H725.208C728.51 210.6 730.905 213.75 729.743 216.84C717.935 248.238 685.058 268.84 645.69 268.84C594.17 268.84 555.45 231.72 555.45 182.12C555.45 132.2 594.17 95.4004 645.69 95.4004C694.97 95.4004 735.29 128.68 735.29 185.64ZM646.01 137C628.884 137 616.438 144.636 610.185 158.612C608.829 161.644 611.237 164.84 614.559 164.84H677.192C680.499 164.84 682.903 161.671 681.545 158.656C675.429 145.075 662.799 137 646.01 137Z" fill="white"/>
<path d="M545.68 260C545.68 262.762 543.442 265 540.68 265H402.2C399.439 265 397.2 262.762 397.2 260V218.762C397.2 217.244 397.89 215.808 399.075 214.859L484.304 146.614C485.073 145.998 485.52 145.067 485.52 144.083C485.52 142.292 484.069 140.84 482.278 140.84H406.36C403.599 140.84 401.36 138.602 401.36 135.84V104.24C401.36 101.479 403.599 99.2402 406.36 99.2402H538.44C541.202 99.2402 543.44 101.479 543.44 104.24V145.473C543.44 146.994 542.748 148.433 541.559 149.382L456.02 217.627C455.249 218.242 454.8 219.174 454.8 220.16C454.8 221.95 456.251 223.4 458.04 223.4H540.68C543.442 223.4 545.68 225.639 545.68 228.4V260Z" fill="white"/>
</svg>
